PathFileType	4	(X/Y/Z)	/Volumes/GoogleDrive/My Drive/Research/Stanford/Projects/Digital Athlete Project/Sprinting/Sprint Simulation/sprinter/subjects/JA1/experimental_data/TRC/run0700cms.trc
DataRate	CameraRate	NumFrames	NumMarkers	Units	OrigDataRate	OrigDataStartFrame	OrigNumFrames
250.000000	250.000000	5	51	mm	250.000000	155	413
Frame#	Time	LPAT			RWR			LASI			LMFS			C7			LSH			RSH			RTHLD			T7			RTHLP			RARM			LLEPI			LLMAL			P3			RELB			RFOREARM			SACR			P1			P2			RTILAT			RTHAP			LTHLP			RLEPI			RPAT			LTIAD			LFOREARM			RLMAL			RP5MT			LTHLD			RMFL			LARM			LMFL			LTOE			RTHAD			MAN			RTOE			LTILAT			LHEEL			RHEEL			RMFS			LELB			RP1MT			RTIAP			LWR			RASI			LTHAP			LTHAD			LTIAP			RTIAD			LP5MT			LP1MT			
		X1	Y1	Z1	X2	Y2	Z2	X3	Y3	Z3	X4	Y4	Z4	X5	Y5	Z5	X6	Y6	Z6	X7	Y7	Z7	X8	Y8	Z8	X9	Y9	Z9	X10	Y10	Z10	X11	Y11	Z11	X12	Y12	Z12	X13	Y13	Z13	X14	Y14	Z14	X15	Y15	Z15	X16	Y16	Z16	X17	Y17	Z17	X18	Y18	Z18	X19	Y19	Z19	X20	Y20	Z20	X21	Y21	Z21	X22	Y22	Z22	X23	Y23	Z23	X24	Y24	Z24	X25	Y25	Z25	X26	Y26	Z26	X27	Y27	Z27	X28	Y28	Z28	X29	Y29	Z29	X30	Y30	Z30	X31	Y31	Z31	X32	Y32	Z32	X33	Y33	Z33	X34	Y34	Z34	X35	Y35	Z35	X36	Y36	Z36	X37	Y37	Z37	X38	Y38	Z38	X39	Y39	Z39	X40	Y40	Z40	X41	Y41	Z41	X42	Y42	Z42	X43	Y43	Z43	X44	Y44	Z44	X45	Y45	Z45	X46	Y46	Z46	X47	Y47	Z47	X48	Y48	Z48	X49	Y49	Z49	X50	Y50	Z50	X51	Y51	Z51	
155	0.620000	-1320.042847	513.071106	153.342651	-1436.299683	1019.050598	518.923523	-1068.841919	1046.793213	87.578087	-1860.902222	548.827209	186.519379	-1183.909180	1541.207153	200.208603	-1141.285278	1529.765747	46.293877	-1163.946899	1528.927612	375.360199	-950.467102	746.519043	383.773102	-1247.783447	1351.549805	198.794113	-1031.275146	824.649292	397.306946	-1302.206909	1434.919922	449.961090	-1375.817383	592.507568	96.250984	-1819.911987	651.567505	139.444382	-1282.317383	1031.845215	219.686920	-1426.073486	1372.214966	482.950348	-1421.312500	1224.367554	504.507782	-1239.548584	1114.846924	220.437134	-1252.979370	1089.567017	168.042053	-1251.404297	1082.897949	274.339508	-780.957153	425.277588	338.365784	-916.733459	876.471375	316.714081	-1276.421997	791.901733	41.395386	-847.170715	640.478577	345.019257	-768.168335	678.311523	293.461578	-1680.911133	593.098938	183.552475	-989.422241	1264.541748	2.873271	-685.860596	205.793900	287.266998	-525.093506	171.604568	308.026581	-1319.541626	688.147827	62.241455	-608.801819	187.013870	291.119873	-1111.222168	1342.237183	-53.984295	-1881.758911	593.816040	128.780502	-1920.050659	482.479462	174.437759	-858.506775	803.573792	308.602692	-1049.368286	1445.954834	233.167786	-504.365143	244.383698	234.689117	-1607.506104	623.285339	109.334320	-1825.456665	716.129028	195.499329	-741.409241	152.862717	237.749100	-585.465027	238.904724	240.710510	-1087.472534	1208.896484	-84.974907	-518.929810	218.745895	193.284714	-750.538086	453.954010	256.766876	-860.400757	1349.214722	101.784554	-1052.134766	1071.994141	292.869690	-1153.997070	729.192688	112.247574	-1215.820068	631.508484	128.222366	-1543.542236	565.048828	176.009918	-712.519714	333.624451	238.600983	-1947.079468	551.704651	104.007149	-1929.820801	507.791901	218.654099
156	0.624000	-1285.854858	509.386475	154.160919	-1399.156860	1014.450562	521.769409	-1041.474243	1047.269775	86.999832	-1826.190308	566.617920	185.487839	-1155.262451	1540.933350	201.224792	-1112.831055	1529.302856	46.733791	-1134.603027	1527.817383	376.382141	-927.476929	740.717224	385.360321	-1220.564331	1351.948364	199.522079	-1007.298218	820.407837	396.757782	-1271.971558	1431.841064	451.539551	-1340.633789	588.522034	96.124657	-1780.134033	667.242065	138.887527	-1254.523560	1030.266479	219.390335	-1394.983154	1367.646606	484.958588	-1387.680542	1219.866211	506.827240	-1212.491455	1113.599609	220.160126	-1225.875610	1088.241821	167.809143	-1223.773438	1081.797974	274.438843	-758.916504	418.592346	338.520386	-890.455750	869.304016	317.959076	-1245.014404	789.184875	41.556355	-824.963074	633.864258	345.301178	-746.244690	670.129395	291.512482	-1644.268433	602.867004	183.312393	-962.920715	1256.435425	1.369454	-659.454224	200.826050	288.209442	-498.130188	167.110687	309.262177	-1286.441650	684.664246	62.215591	-582.295227	182.189178	292.157959	-1087.783081	1341.283325	-53.469448	-1843.868530	612.743896	127.359718	-1888.298706	503.350983	172.504425	-835.049316	794.675415	308.199799	-1021.321655	1445.088013	232.889465	-477.214905	241.558929	237.139313	-1569.582031	629.356873	109.244339	-1782.813110	732.168518	195.301910	-714.040833	148.200516	238.096024	-558.755188	235.074677	242.525986	-1066.541748	1207.284180	-84.595581	-491.996185	215.756485	195.237198	-726.222412	448.565918	257.633575	-826.015198	1331.619141	99.265030	-1024.888672	1072.319092	292.842773	-1121.020996	728.997253	111.879265	-1182.157593	629.794861	128.875458	-1508.710815	568.203430	175.815506	-686.350403	328.940613	240.179321	-1910.875488	573.907776	101.672272	-1897.125488	528.779663	216.421921
157	0.628000	-1251.211914	505.581299	154.583618	-1361.195068	1009.542114	524.778503	-1014.061829	1047.501099	86.530380	-1790.101196	583.830750	184.476440	-1126.916992	1540.499512	202.203079	-1084.574097	1528.578491	47.123344	-1105.201538	1526.391968	377.473755	-903.833252	735.693420	387.488220	-1193.096924	1351.466309	200.365814	-982.847168	816.851257	397.083801	-1241.590576	1428.611572	453.168945	-1304.963013	584.428589	95.891365	-1738.777710	682.453979	138.083008	-1227.022949	1028.679321	219.157303	-1363.347168	1362.734497	487.321899	-1353.470703	1215.139893	509.382111	-1185.715088	1112.407593	219.995834	-1198.703491	1086.804199	167.592484	-1196.525391	1080.646484	274.204285	-737.847839	412.032562	338.090820	-864.201660	862.424072	318.856354	-1213.309814	786.191406	41.653641	-803.171570	627.570190	345.278900	-724.796082	663.301697	289.458832	-1606.767944	611.789734	183.032486	-937.086731	1247.811768	-0.172443	-635.342285	195.549164	288.739227	-473.816681	162.059555	311.249451	-1252.905273	680.948425	61.944466	-557.406921	177.674667	293.802338	-1063.429565	1340.079834	-53.731773	-1804.699585	630.980225	126.111526	-1854.719238	523.655334	170.228638	-811.507324	786.511047	307.923401	-993.238770	1444.008179	232.722610	-452.350006	237.122604	240.052338	-1531.011353	634.602966	108.925209	-1739.123657	747.284546	195.037247	-688.882690	143.146454	237.659317	-534.245850	230.389969	244.648514	-1046.459106	1205.692505	-83.651154	-466.667633	211.875198	197.455246	-702.702820	443.372498	258.909424	-797.005005	1312.992676	100.223518	-997.707397	1072.235596	292.889740	-1088.852783	728.305847	112.424515	-1148.259766	627.656555	129.393021	-1472.878662	571.362793	175.777100	-661.916016	323.972260	241.100388	-1872.854370	595.070984	99.402664	-1863.071533	549.072449	214.322464
158	0.632000	-1216.223999	501.356567	154.800644	-1322.621704	1004.295105	527.790222	-986.455811	1047.484253	86.046074	-1752.471924	600.368896	183.475204	-1098.697754	1539.763794	203.354507	-1056.302979	1527.596191	47.453033	-1075.667847	1524.795776	378.585632	-879.981567	731.073669	389.067780	-1165.713745	1351.158325	201.158310	-957.789307	813.847717	398.393097	-1210.986328	1424.881958	454.974579	-1269.254761	579.962708	95.479607	-1697.907227	696.061829	138.600586	-1199.950806	1026.964111	219.094498	-1331.534790	1357.362549	489.884613	-1318.794678	1210.014038	512.067810	-1158.729858	1110.815552	219.928406	-1171.553711	1085.202026	167.484009	-1169.766479	1079.369019	274.098236	-717.568787	405.654297	337.431213	-837.858887	855.950378	319.783020	-1181.517456	782.855713	41.797604	-781.163086	621.359009	345.755310	-703.581055	657.947815	288.207306	-1568.197632	620.237488	182.880219	-915.222839	1238.366943	1.519647	-613.351990	190.146301	288.864563	-452.208313	156.378098	313.136993	-1219.367798	676.961426	61.969650	-535.466614	172.009659	294.722534	-1040.152466	1338.581543	-53.003235	-1764.252197	648.164490	124.854630	-1819.765137	543.158264	168.341782	-788.019165	779.143982	307.358154	-965.152283	1442.636841	232.471741	-429.661743	231.816589	242.760193	-1491.805664	639.257935	108.669540	-1694.536011	761.235901	194.735245	-666.300537	137.844849	236.756332	-511.445404	225.271454	246.075455	-1025.498169	1203.804932	-83.426460	-442.996307	207.320343	199.683365	-679.865723	438.422516	259.660522	-765.891541	1293.406250	97.309624	-970.595581	1071.836304	293.063782	-1057.514771	727.055115	113.778114	-1114.864868	624.996155	130.147202	-1436.361328	573.875732	175.382721	-639.130920	318.881836	241.697464	-1833.463501	615.370972	97.361237	-1827.247559	568.850891	212.395462
159	0.636000	-1180.693481	496.954071	154.766388	-1283.427490	998.624939	530.761475	-959.019043	1047.088013	85.818008	-1706.766479	617.190796	176.669250	-1070.283081	1538.417480	204.382065	-1028.121704	1526.394531	47.846367	-1046.196655	1522.912842	379.719208	-855.733398	727.111572	389.636993	-1137.982300	1350.670532	202.134155	-932.621277	810.798157	399.897125	-1180.242310	1420.891235	456.871918	-1233.120483	575.393188	94.964073	-1653.422729	709.668518	136.985794	-1172.277466	1025.142212	218.726852	-1299.425537	1351.541992	492.636261	-1283.568726	1204.528320	514.836914	-1131.966187	1109.359131	219.725311	-1144.382202	1083.501587	167.324738	-1142.957397	1077.873657	274.004639	-697.237732	399.751740	337.195251	-811.591492	849.940613	320.481171	-1149.740723	779.491455	41.826183	-759.248047	615.809692	345.993988	-682.322205	653.784729	287.866455	-1528.520630	628.333313	182.892944	-890.144165	1228.848389	-0.260597	-593.105042	184.532257	289.050293	-433.045807	149.609665	315.167603	-1185.682861	672.843201	61.624760	-515.341248	166.210785	295.498657	-1016.294250	1337.030640	-52.737125	-1722.488525	664.577332	123.412766	-1783.253174	561.906860	166.662857	-763.968079	773.027771	307.137939	-937.024048	1441.129517	232.289627	-409.023285	225.325745	245.087875	-1451.655029	643.402344	108.178436	-1648.773071	774.409607	194.215057	-645.687073	132.581131	235.165466	-490.647339	219.334839	247.339981	-1004.940613	1201.834473	-82.801987	-420.828186	201.463837	201.756836	-658.148071	433.105530	260.187683	-735.937622	1272.880737	93.953201	-943.495239	1071.124634	293.358398	-1025.526978	725.685852	114.699287	-1081.872925	621.525269	131.311981	-1398.606201	576.420288	175.576187	-617.648438	313.753754	241.494675	-1792.668091	634.396667	95.251183	-1789.802490	587.808411	210.726730
